<svg id="Layer_1" xmlns="http://www.w3.org/2000/svg" xmlns:xlink="http://www.w3.org/1999/xlink" viewBox="0 0 150 150"><style>.st0{fill:#71ccd6}.st1{fill:#222}.st2{fill:#14487c}.st3{fill:#cccccd}.st5{fill:#173b63}.st7{fill:#569ca3}.st10{fill:#494949}</style><path class="st0" d="M74.6 27.8c-7.1 0-12.9-5.3-12.9-11.8 0-6.5 5.8-11.8 12.9-11.8S87.5 9.5 87.5 16c0 6.5-5.8 11.8-12.9 11.8"/><path class="st1" d="M74.6 7.8c5.3 0 9.5 3.7 9.5 8.2s-4.3 8.2-9.5 8.2c-5.3 0-9.5-3.7-9.5-8.2s4.3-8.2 9.5-8.2m0-7.3c-4 0-7.9 1.4-10.9 3.9-3.4 2.9-5.4 7.1-5.4 11.5s2 8.6 5.4 11.5c3 2.5 6.8 3.9 10.9 3.9 4 0 7.9-1.4 10.9-3.9 3.4-2.9 5.4-7.1 5.4-11.5s-2-8.6-5.4-11.5C82.5 1.9 78.7.5 74.6.5"/><path class="st0" d="M137.1 109.3c-16.1-8.1-38.2-13-62.5-13-24.3 0-46.3 5-62.5 13-1.9 1-3.8 2-5.5 3l4.2 27.9c.6 4.2 4.7 6.8 8.4 5.3 15.2-6.2 34.5-9.8 55.4-9.8 21.2 0 40.7 3.8 56.1 10.1 3.3 1.4 7-1 7.6-4.8l4.3-28.7c-1.7-1.1-3.6-2.1-5.5-3"/><path class="st2" d="M133.2 107.4l1.6.7.1-.4-1.7-.3z"/><path class="st3" d="M14.8 108l-.3.1.3-.1"/><path class="st2" d="M14.8 108l-.3.1v.1l.3-.2M126.4 104.7l1.1.4v-.2l-1.1-.2z"/><path class="st3" d="M31.7 101.9l-1.4.4 1.4-.4"/><path class="st2" d="M31.7 101.9l-1.4.3v.1l1.4-.4"/><path class="st3" d="M118.8 102.2h.2-.2z"/><path class="st2" d="M118.8 102.2h.2-.2z"/><path class="st3" d="M21.7 105.1l-.6.2.6-.2zm3.2-1.1l-1.2.4 1.2-.4z"/><path class="st2" d="M21.7 105.1l-.6.2c.2.3.4.6.8.8l-.2-1zm3.2-1.1l-1.2.4.3 1.7c.6-.4 1-1.2 1-2l-.1-.1"/><path d="M23.7 104.4l-1.9.7 1.9-.7z" fill="#a3a5a5"/><path class="st5" d="M23.7 104.4l-2 .4.1.4 1.9-.8zm0 0l-1.9.7.2 1c.3.2.6.3 1 .3h.1c.3 0 .6-.1.9-.3l-.3-1.7z"/><path class="st3" d="M124.8 104.1l1.4.5-1.4-.5"/><path class="st2" d="M124.8 104.1v.4l.8.1h.1l.5.1h-.1l-1.3-.6"/><path class="st5" d="M125.6 104.6h.1-.1z"/><path class="st0" d="M74.7 96.2c24.3 0 46.3 5 62.5 13 1.9 1 3.7 2 5.5 3V78.4c0-40.9-30.6-62.7-68-62.7s-68 21.9-68 62.7v33.9c1.8-1.1 3.6-2.1 5.5-3 16.1-8.1 38.2-13.1 62.5-13.1"/><defs><path id="SVGID_1_" d="M74.7 96.2c24.3 0 46.3 5 62.5 13 1.9 1 3.7 2 5.5 3V78.4c0-40.9-30.6-62.7-68-62.7s-68 21.9-68 62.7v33.9c1.8-1.1 3.6-2.1 5.5-3 16.1-8.1 38.2-13.1 62.5-13.1"/></defs><clipPath id="SVGID_2_"><use xlink:href="#SVGID_1_" overflow="visible"/></clipPath><path d="M129.3 93.4c0-21.8-6-40.2-15.8-53.9-7.8-10.9-23.8-21.1-35.2-25.5-2.4-.2-10.7 2-13.2 2.2-9.3 3.4-7.5 3-11.7 5.6-9.7 5.9-18 14.6-23.8 26.4-5.7 11.7-9 26.4-9.1 44.5v1.1c0 3.4.1 7 .4 10.6 0 .3.1 2.9.3 3.2.2-.1 23.7-8.1 34.5-9.3 14-1.6 21-.3 30.3-.3s19.7 1.5 27.5 4.6c7.8 3.1 12.7 5.2 12.7 2.1v-.1 1.9l2.5.8v1.6c.4-3.9.6-11.8.6-15.5" clip-path="url(#SVGID_2_)" fill="#fff"/><path class="st7" d="M142.6 112.3c-1.7-1-3.6-2-5.5-3-16-8-37.7-12.9-61.7-13v39.4c20.9.1 40.1 3.9 55.2 10.1 3.3 1.4 7-1 7.6-4.8l4.4-28.7z"/><path d="M132.9 107.4l-3.2 21c-.2 1.1-.7 2-1.4 2.6-.7.7-1.6 1-2.5 1-.5 0-.9-.1-1.4-.3-13.7-5.6-30.9-9-49.7-9-18.5 0-35.6 3.3-49.1 8.7-.5.2-1.1.3-1.6.3-1.1 0-2.1-.4-2.9-1.1-.8-.7-1.4-1.7-1.6-3l-3-20-1.6.3-.3.1 3 19.9c.3 1.8 1.1 3.3 2.3 4.3 1.2 1 2.6 1.7 4.2 1.7.8 0 1.5-.1 2.3-.4 13.3-5.4 30.1-8.6 48.4-8.6 18.6 0 35.6 3.3 49 8.8.7.3 1.4.4 2.1.4 1.4 0 2.8-.6 3.8-1.5 1.1-1 1.8-2.4 2.1-4l3.1-20.6-1.6-.7-.4.1zm-7.3-2.8l-2.3 15.3c-.1.9-.6 1.7-1.2 2.3-.6.6-1.4.9-2.2.9-.4 0-.8-.1-1.2-.2-12.1-5-27.4-8-44.1-8-16.4 0-31.5 2.9-43.5 7.7-.5.2-.9.3-1.4.3-.9 0-1.8-.4-2.5-1s-1.2-1.5-1.3-2.6l-2-13.1c-.3.2-.6.3-.9.3h-.1c-.4 0-.7-.1-1-.3l2.1 13.5c.2 1.6 1 3 2 3.9 1 .9 2.4 1.5 3.8 1.5.7 0 1.4-.1 2-.4 11.8-4.8 26.7-7.6 42.8-7.6 16.4 0 31.5 2.9 43.3 7.8.6.3 1.3.4 1.9.4 1.3 0 2.5-.5 3.5-1.4 1-.9 1.7-2.1 1.9-3.6l2.3-15.1-1.1-.4-.7-.1-.1-.1zm-93.3-2.8l-.6.1-1.4.4 1.4 9.1c.2 1.4.9 2.6 1.8 3.4.9.8 2.1 1.3 3.3 1.3.6 0 1.2-.1 1.8-.4 9.9-4 22.5-6.4 36.1-6.4 13.8 0 26.6 2.5 36.5 6.6.5.2 1.1.3 1.7.3 1.1 0 2.2-.4 3-1.2.8-.8 1.5-1.9 1.6-3.1l1.5-9.6h-.2l-1.8-.3-1.5 9.6c-.1.8-.5 1.4-.9 1.8s-1.1.7-1.7.7c-.3 0-.6-.1-.9-.2-10.2-4.2-23.2-6.7-37.2-6.7-13.9 0-26.6 2.4-36.8 6.6-.4.1-.7.2-1.1.2-.7 0-1.4-.3-2-.8-.6-.5-1-1.2-1.1-2.1l-1.5-9.3z" fill="#8fd5dd"/><path class="st7" d="M142.6 112.3V78.4c0-37-25.1-58.3-57.5-62.1 10.5 4.7 21 13.1 28.2 23.1 9.8 13.7 15.8 32.1 15.8 53.9 0 3.6-.1 8.4-.5 12.2 3 1.2 5.8 2.4 8.5 3.7 1.9 1 3.8 2 5.5 3.1zM93 97.2c3.9.4 7.7 1 11.4 1.7-4.3-1.7-7.7-1.9-11.4-1.7zm28.7 6l-1.1-.6c-.7-.2-1.5-.3-2.3-.4 1.2.2 2.3.6 3.4 1zm2.7.8l-.2-.7h2.3c0 .2-7.9-3.3-8-3.1l5 3.5.9.3z"/><path d="M129.1 94.3c0-22.1-6-40.6-15.8-54.5-7.8-11.1-19.5-20.1-30.9-24.6-2.4-.2-6.5-.9-6.5-.9H75v83.8c2.3.3 4.7.5 7.7.5 9.3 0 14.1-1.9 21.8 1.3 7.2 2.9 11.7 2.7 16.1 3.6l4 2.3-.5-1.6h2.3c0 .1-2-.7-4-1.6-2-.8-3.9-1.7-4-1.6l8.4 5.9 1.7.2c.4-3.8.6-9 .6-12.8" fill="#d2d3d3"/><path class="st1" d="M75 15.1v-3.3c-19.3 0-37.1 5.7-50.2 16.9C11.7 39.9 3.7 56.8 3.7 78.1v34.5l4.2 28c.4 2.5 1.5 4.6 3.2 6.1 1.7 1.5 3.9 2.5 6.3 2.5 1.1 0 2.3-.2 3.4-.7 14.8-6 33.6-9.6 54.1-9.6 20.8 0 39.9 3.8 54.8 9.9 1.1.4 2.2.7 3.3.7 2.2 0 4.3-.9 5.9-2.3 1.6-1.4 2.7-3.5 3-5.7l4.3-28.8V78.2c0-21.4-8.1-38.2-21.1-49.4-13-11.4-30.8-17-50.1-17v6.6c18 0 34.2 5.3 45.8 15.3 11.6 10 18.8 24.7 18.8 44.4v33.7l-4.3 28.6c-.1.8-.5 1.4-.9 1.8-.4.4-.9.6-1.4.6-.2 0-.4 0-.7-.1-15.8-6.6-35.7-10.4-57.3-10.4-21.3 0-40.9 3.8-56.6 10.1-.3.1-.6.2-.9.2-.6 0-1.2-.2-1.8-.7-.5-.5-1-1.2-1.1-2.2l-4.2-27.8V78.1c0-19.7 7.2-34.4 18.8-44.4C40.8 23.7 57 18.4 75 18.4v-3.3zm69 95c-1.8-1.1-3.7-2.2-5.7-3.2-16.6-8.5-39-13.7-63.7-13.7-24.7 0-47.1 5.2-63.7 13.7-2 1-3.9 2.1-5.7 3.2-1.3.8-1.7 2.4-.9 3.7.8 1.3 2.4 1.7 3.7.9 1.7-1 3.5-2.1 5.4-3 15.7-8.1 37.3-13.1 61.2-13.1 23.9 0 45.6 5.1 61.2 13.1 1.9 1 3.6 2 5.3 3 1.3.8 2.9.4 3.7-.9.9-1.3.5-3-.8-3.7z"/><g><path class="st10" d="M58.8 39h38.7L96 51.2H57.3zM56.7 55.9h38.7L94.2 66H69.9l-.6 5h24.3l-1.5 11.5H53.4z"/></g></svg>