<svg width="92" height="16" viewBox="0 0 92 16" fill="none" xmlns="http://www.w3.org/2000/svg">
<g clip-path="url(#clip0_1513_15153)">
<path d="M23.1453 6.66016C22.4549 6.66016 15.7426 6.66016 14.3802 6.66016C14.0895 8.57688 15.0432 9.43986 16.4057 9.43986C17.1414 9.43986 21.8101 9.43986 21.8101 9.43986L21.6375 10.8115H13.8715L13.481 14C13.481 14 21.9372 14 22.2824 14C22.564 13.9819 24.5441 13.9274 25.2162 12.3104C25.4342 11.7835 25.6249 9.90314 25.6794 9.50345C25.9882 7.20519 24.3987 6.66016 23.1453 6.66016Z" fill="#F5FBFF"/>
<path d="M45.4077 13.9997H49.3952L50.3035 6.65985L46.3069 6.65076L45.4077 13.9997Z" fill="#F5FBFF"/>
<path d="M13.2266 9.43986L13.5718 6.66016H2.89924L2 14H12.6725L13.0631 10.8115H6.37801L6.55059 9.43986H13.2266Z" fill="#F5FBFF"/>
<path d="M48.0058 2.0094H39.3042L38.8955 5.3705H50.4672C50.4672 5.3705 50.4854 5.2524 50.5308 4.8527C50.8124 2.64529 49.3864 2.0094 48.0148 2.0094H48.0058Z" fill="#F5FBFF"/>
<path d="M26.8055 6.66016L25.9062 14H29.8937L30.4568 9.43986H35.4707C36.8876 9.43986 37.6597 8.67681 37.7959 7.65031C37.8686 7.13252 37.9231 6.66016 37.9231 6.66016H26.8146H26.8055Z" fill="#F5FBFF"/>
<path d="M38.1505 4.74338C38.3321 3.3081 37.7145 2 35.4982 2C35.4982 2 18.7855 2 17.8318 2C16.0243 2 14.8253 2.95382 14.6528 4.38001C14.5892 4.90688 14.5347 5.37018 14.5347 5.37018H38.0687C38.0687 5.37018 38.1141 5.02498 38.1505 4.74338Z" fill="#F5FBFF"/>
<path d="M37.8237 13.9997H41.8203L42.7195 6.65985L38.723 6.65076L37.8237 13.9997Z" fill="#F5FBFF"/>
<path d="M14.1441 2.0094H3.47155L3.05371 5.3705H13.7262L14.1441 2.0094Z" fill="#F5FBFF"/>
<path d="M62.8835 2.0094H54.0548L52.6016 14.0003C52.6016 14.0003 61.1214 14.0003 61.4666 14.0003C61.7481 13.9822 63.7101 13.964 64.4004 12.3379C64.6274 11.8111 64.8 10.3395 64.8545 9.93976C64.9908 8.97685 64.4821 8.41365 63.9644 8.09571C63.8554 8.02303 63.8736 7.85043 64.0098 7.81409C64.5548 7.67783 65.0634 7.38715 65.1997 6.76943C65.2996 6.3334 65.3904 5.38866 65.4631 4.86178C65.7719 2.64528 64.2823 2.0094 62.8835 2.0094ZM62.5384 9.56731L62.3749 10.8936C62.3022 11.5113 61.8299 11.9019 61.1668 11.9473H55.2356L55.5808 9.08586H62.1841C62.6292 9.08586 62.5474 9.56731 62.5474 9.56731H62.5384ZM63.1923 4.56202L63.0288 5.88828C62.9562 6.50599 62.4839 6.89661 61.8208 6.94203H55.8896L56.2348 4.08057H62.8381C63.3195 4.08057 63.2014 4.56202 63.2014 4.56202H63.1923Z" fill="#20F4CA"/>
<path d="M77.4892 4.07148L77.7344 2.0094H67.2344L65.7539 14.0003H76.2629L76.5082 11.9201L68.4243 11.9473L68.8149 9.07678H75.6181L75.8633 6.96928H69.0692L69.4598 4.07148H77.4892Z" fill="#20F4CA"/>
<path d="M89.7601 2.0094H78.9967L78.7515 4.08965H82.9478L81.7216 14.0003H84.0923L85.3366 4.08965H89.5148L89.7601 2.0094Z" fill="#20F4CA"/>
</g>
<defs>
<clipPath id="clip0_1513_15153">
<rect width="87.76" height="12" fill="white" transform="translate(2 2)"/>
</clipPath>
</defs>
</svg>
