<svg version="1.1" xmlns="http://www.w3.org/2000/svg" xmlns:xlink="http://www.w3.org/1999/xlink" x="0" y="0" viewBox="0 0 100 100" enable-background="new 0 0 100 100" xml:space="preserve"><g id="baseball"><g><path fill="#FFF" d="M48.9,97.6L50,98l1.1-0.4c36.4-12.9,47.1-38.9,47.5-40l0.4-1.1l-0.3-1.1c-7.7-24.4-6-41.1-6-41.2l0.3-2.4 l-2.2-0.9C72.5,3.2,51.1,2.1,50.2,2L50,2l-0.2,0c-0.9,0-22.3,1.1-40.5,8.9l-2.2,0.9l0.2,2.4c0,0.2,1.6,16.8-6,41.2L1,56.5l0.4,1.1 C1.9,58.7,12.5,84.6,48.9,97.6L48.9,97.6z"/><path fill="#00B4EB" d="M84.8,17.4C69,10.7,50,9.8,50,9.8s-19,0.9-34.8,7.6c0,0,1.6,15.2-5.4,37.7c0,0,4,24.1,40.2,33.7 c36.3-9.6,40.2-33.7,40.2-33.7C83.2,32.7,84.8,17.4,84.8,17.4"/><path fill="#0F183E" d="M50,11.7c2.4,0.1,18.3,1.3,32.8,6.5c0,6.9,0.7,20.3,5.9,37.7C85.8,61.5,75.3,78,50,87.7 C37.5,83,27.2,76,19.1,67c-4.2-4.7-6.7-8.8-7.9-11.1c5.2-17.4,5.9-30.9,5.9-37.7C31.7,13,47.6,11.8,50,11.7 M50,5.3 c0,0-21.6,1-39.4,8.6c0,0,1.8,17.1-6.2,42.5c0,0,10.1,25.5,45.6,38.1c35.4-12.6,45.6-38.1,45.6-38.1c-8-25.5-6.2-42.5-6.2-42.5 C71.6,6.3,50,5.3,50,5.3"/><path fill="#FFF" d="M74.1,49c0,13.4-10.8,24.3-24.2,24.3S25.7,62.4,25.7,49c0-13.4,10.8-24.3,24.2-24.3S74.1,35.5,74.1,49"/><path fill="#0F183E" d="M49.9,71.5c-12.4,0-22.4-10.1-22.4-22.5c0-12.4,10-22.5,22.4-22.5c12.4,0,22.4,10.1,22.4,22.5 C72.3,61.4,62.3,71.5,49.9,71.5 M50,21.5c-15.1,0-27.3,12.2-27.3,27.3C22.7,63.8,34.9,76,50,76c15.1,0,27.3-12.2,27.3-27.3 C77.3,33.7,65.1,21.5,50,21.5"/><path fill="#0F183E" d="M46.9,33.7l0,0.2c0.1,0.8,0.2,1.5,0.2,2.3l0,0.1l1.5,1l0-0.5c0-0.7,0-1.4-0.1-2.2c0.7-0.2,1.4-0.5,2.1-0.7 l0.5-0.1l-0.4-0.3c-0.4-0.3-0.7-0.5-1.1-0.8l-0.1-0.1l-0.1,0c-0.8,0.2-1.5,0.5-2.3,0.8L46.9,33.7L46.9,33.7z"/><path fill="#0F183E" d="M40.2,30.8l0.1,0.2c0.3,0.7,0.5,1.5,0.7,2.2l0,0.1l0.1,0c0.4,0.1,0.7,0.3,1.1,0.4l0.4,0.2l-0.1-0.4 c-0.2-0.7-0.4-1.4-0.6-2.1c0.6-0.4,1.2-0.8,1.9-1.1l0.4-0.2l-0.5-0.2c-0.4-0.2-0.8-0.3-1.3-0.5l-0.1,0l-0.1,0.1 c-0.7,0.4-1.4,0.8-2,1.3L40.2,30.8L40.2,30.8z"/><path fill="#0F183E" d="M43.6,32l0,0.2c0.2,0.8,0.3,1.5,0.4,2.3l0,0.1l0.1,0.1c0.3,0.2,0.7,0.4,1,0.6l0.4,0.2L45.6,35 c-0.1-0.7-0.2-1.4-0.3-2.1c0.7-0.3,1.3-0.6,2-0.9l0.5-0.2l-0.4-0.2c-0.4-0.2-0.8-0.4-1.2-0.6l-0.1-0.1l-0.1,0 c-0.7,0.3-1.5,0.7-2.2,1L43.6,32L43.6,32z"/><path fill="#0F183E" d="M37.6,32.2l0,0.1l0.1,0c0.4,0.1,0.8,0.2,1.1,0.3l0.4,0.1l-0.2-0.4c-0.2-0.7-0.5-1.3-0.8-2 c0.6-0.5,1.1-0.9,1.7-1.3l0.4-0.3L40,28.5c-0.4-0.1-0.9-0.2-1.3-0.3l-0.1,0l-0.1,0.1c-0.6,0.5-1.3,1-1.8,1.6L36.6,30l0.1,0.2 C37,30.8,37.3,31.5,37.6,32.2"/><path fill="#0F183E" d="M33.8,63.2c0-0.3,0-0.5,0-0.8c0.7-0.2,1.3-0.5,2-0.7l0.4-0.2l-0.4-0.3l-1-0.7l-0.1,0 c-0.7,0.2-1.4,0.5-2.2,0.7l-0.2,0l0,0.2c0,0.7-0.1,1.5-0.1,2.2v0.1v0.1l1.5,1.1l0-0.5C33.8,64.1,33.8,63.6,33.8,63.2"/><path fill="#0F183E" d="M33.2,59.7l0.4-0.1l-0.3-0.3l-0.9-0.8l-0.1,0c-0.7,0.2-1.5,0.4-2.2,0.5l-0.2,0l0,0.2 c-0.1,0.8-0.2,1.5-0.3,2.3l0,0.1l1.4,1.2l0-0.5c0-0.7,0.1-1.4,0.2-2.1C31.8,60.1,32.5,59.9,33.2,59.7"/><path fill="#0F183E" d="M30.7,57.5l0.4-0.1l-0.3-0.3L30,56.2l-0.1,0c-0.7,0.1-1.5,0.2-2.2,0.3l-0.2,0l0,0.2 c-0.2,0.8-0.3,1.5-0.5,2.3l0,0.1l1.3,1.3l0.1-0.5c0.1-0.7,0.2-1.4,0.4-2.1C29.3,57.8,30,57.7,30.7,57.5"/><path fill="#0F183E" d="M58.9,42.5l0,0.2c0.1,0.8,0.3,1.6,0.5,2.4l0,0.1l0.1,0c0.4,0.2,0.9,0.4,1.3,0.5l0.5,0.2l-0.2-0.5 c-0.2-0.7-0.5-1.4-0.6-2.1c0.6-0.3,1.3-0.7,1.8-1.1l0.4-0.3l-0.4-0.2c-0.4-0.1-0.7-0.3-1-0.4l-0.1-0.1l-0.1,0.1 c-0.6,0.4-1.3,0.7-2,1.1L58.9,42.5L58.9,42.5z"/><path fill="#0F183E" d="M62.3,44l0.1,0.2c0.3,0.7,0.6,1.5,1,2.2l0.1,0.1l0.1,0c0.5,0.1,0.9,0.2,1.4,0.3l0.5,0.1l-0.3-0.4 c-0.4-0.6-0.7-1.3-1-1.9c0.6-0.5,1.1-1,1.6-1.5l0.3-0.3l-0.4-0.1c-0.4,0-0.7-0.1-1.1-0.2l-0.1,0l-0.1,0.1c-0.5,0.5-1.1,1-1.8,1.4 L62.3,44L62.3,44z"/><path fill="#0F183E" d="M50,35.8l0,0.2c0,0.2,0,0.3,0,0.5c0,0.6,0,1.2,0,1.8l0,0.1l1.4,1.1l0-0.5c0.1-0.7,0.1-1.4,0.1-2.2 c0.7-0.2,1.4-0.3,2.1-0.5l0.5-0.1l-0.4-0.3l-1.1-0.9l-0.1,0c-0.8,0.2-1.6,0.4-2.3,0.6L50,35.8L50,35.8z"/><path fill="#0F183E" d="M52.9,38.1l0,0.2c-0.1,0.8-0.1,1.6-0.1,2.4v0.1l0.1,0.1c0.3,0.3,0.7,0.6,1,0.8l0.4,0.3l0-0.5 c0-0.3,0-0.5,0-0.8c0-0.5,0-1,0-1.4c0.7-0.2,1.4-0.3,2.1-0.5l0.4-0.1l-0.4-0.3c-0.3-0.2-0.6-0.5-0.9-0.7l-0.1-0.1l-0.1,0 c-0.7,0.2-1.5,0.3-2.3,0.5L52.9,38.1L52.9,38.1z"/><path fill="#0F183E" d="M55.8,40.5l0,0.2c0,0.8,0.1,1.6,0.2,2.4l0,0.1l0.1,0.1c0.4,0.2,0.8,0.5,1.2,0.7l0.4,0.3l-0.1-0.5 c-0.1-0.7-0.2-1.5-0.3-2.2c0.7-0.2,1.4-0.5,2-0.8l0.4-0.2l-0.4-0.2c-0.3-0.2-0.7-0.4-1-0.6l-0.1-0.1l-0.1,0 c-0.7,0.3-1.4,0.5-2.2,0.8L55.8,40.5L55.8,40.5z"/><path fill="#0F183E" d="M66,44.9c0.4,0.7,0.9,1.3,1.5,1.9l0.1,0.1l0.1,0c0.5,0,1,0,1.5-0.1l0.5-0.1l-0.4-0.3 c-0.6-0.5-1.1-1-1.5-1.6c0.4-0.6,0.8-1.2,1.1-1.8l0.2-0.4l-0.4,0.1c-0.3,0-0.7,0.1-1.1,0.1l-0.1,0l-0.1,0.1 C67,43.4,66.5,44,66,44.6l-0.1,0.1L66,44.9L66,44.9z"/><path fill="#0F183E" d="M67.6,58.4c0.1-0.7,0.2-1.4,0.4-2.1l0.1-0.5l-0.5,0.2c-0.4,0.2-0.8,0.4-1.2,0.6l-0.1,0.1l0,0.1 c-0.1,0.8-0.2,1.6-0.2,2.4l0,0.2l0.2,0.1c0.7,0.3,1.4,0.6,2,0.9l0.1,0.1l0.1-0.1c0.3-0.2,0.6-0.3,0.9-0.4l0.4-0.2l-0.3-0.2 C68.8,59.1,68.2,58.8,67.6,58.4"/><path fill="#0F183E" d="M64.7,60.4c0-0.6,0-1.1,0-1.7c0-0.2,0-0.3,0-0.5l0-0.5L64.3,58l-1.1,0.8l0,0.1c0,0.8,0.1,1.5,0.1,2.3 l0,0.2l0.2,0c0.7,0.2,1.5,0.4,2.2,0.6l0.1,0l1.3-1L66.7,61C66.1,60.8,65.4,60.6,64.7,60.4"/><path fill="#0F183E" d="M62.1,62.5c0-0.7-0.1-1.4-0.1-2.1l0-0.4l-0.4,0.3l-1,0.8l0,0.1c0,0.7,0.1,1.5,0.1,2.3v0.2l0.2,0.1 c0.7,0.3,1.5,0.5,2.2,0.7l0.1,0l1.4-1.1l-0.4-0.1C63.4,62.9,62.7,62.7,62.1,62.5"/><path fill="#0F183E" d="M70.8,57.3c0.3-0.6,0.7-1.3,1.1-1.8l0.3-0.4l-0.5,0c-0.5,0-0.9,0.1-1.4,0.2l-0.1,0l-0.1,0.1 c-0.4,0.7-0.8,1.5-1,2.2l-0.1,0.2l0.1,0.1c0.6,0.4,1.1,0.9,1.6,1.5l0.1,0.1l0.1,0c0.3,0,0.6-0.1,0.9-0.1l0.4,0L72.1,59 C71.7,58.4,71.3,57.9,70.8,57.3"/><path fill="#0F183E" d="M59.2,64.4c0.1-0.7,0.1-1.4,0.1-2v-0.1v-0.4L59,62.1c-0.3,0.2-0.6,0.4-0.9,0.6l-0.1,0.1l0,0.1 c0,0.7-0.1,1.5-0.2,2.2l0,0.2l0.1,0.1c0.7,0.3,1.4,0.7,2.1,1l0.1,0l0.1-0.1c0.4-0.2,0.7-0.4,1.1-0.7l0.4-0.3l-0.4-0.2 C60.6,65,59.9,64.7,59.2,64.4"/><path fill="#0F183E" d="M36.6,64.3c0.6-0.3,1.3-0.6,1.9-0.9l0.4-0.2l-0.4-0.2l-1.1-0.6l-0.1,0.1c-0.7,0.3-1.4,0.6-2.1,0.9 l-0.2,0.1l0,0.2c0,0.8,0.1,1.5,0.2,2.3l0,0.1l0.1,0.1c0.4,0.2,0.7,0.4,1.1,0.6l0.4,0.2l-0.1-0.5C36.8,65.7,36.7,65,36.6,64.3"/><path fill="#0F183E" d="M73.4,45.1c-0.7-0.2-0.8-0.7-1.4-1c0.2-0.7-0.2-1.3-0.2-2l0-0.4l-0.4,0.2c-0.3,0.1-0.6,0.3-0.9,0.4l-0.1,0 l0,0.1c-0.1,0.7-0.4,1.4-0.7,2.1l-0.1,0.2l0.1,0.1c0.6,0.5,1.3,1,2.1,1.4l0.7,0.3l0.1,0c0.5-0.2,0.4-0.6,0.9-0.8l0.5-0.3 L73.4,45.1L73.4,45.1z"/><path fill="#0F183E" d="M44.8,65.3l-0.4-0.1c-0.3-0.1-0.7-0.2-1-0.3l-0.1,0L43.1,65c-0.6,0.5-1.1,0.9-1.8,1.4l-0.1,0.1l0,0.2 c0.2,0.7,0.5,1.5,0.7,2.2l0,0.1l0.1,0c0.4,0.1,0.8,0.2,1.2,0.3l0.5,0.1L43.7,69c-0.3-0.7-0.6-1.3-0.8-2c0.6-0.4,1.1-0.9,1.6-1.4 L44.8,65.3L44.8,65.3z"/><path fill="#0F183E" d="M47.8,65.7l-0.4,0c-0.3,0-0.7,0-1-0.1l-0.1,0l-0.1,0.1c-0.5,0.6-1,1.1-1.5,1.6l-0.1,0.1l0.1,0.2 c0.3,0.7,0.7,1.4,1.1,2.1l0.1,0.1l0.1,0c0.4,0,0.9,0.1,1.3,0.1l0.5,0l-0.3-0.4c-0.4-0.6-0.8-1.2-1.1-1.8c0.5-0.5,0.9-1.1,1.3-1.6 L47.8,65.7L47.8,65.7z"/><path fill="#0F183E" d="M39.7,65.8c0.6-0.4,1.2-0.7,1.8-1.1l0.4-0.3l-0.4-0.2c-0.3-0.1-0.7-0.3-1-0.4l-0.1-0.1l-0.1,0.1 c-0.6,0.4-1.3,0.8-1.9,1.1l-0.1,0.1l0,0.2c0.1,0.8,0.3,1.5,0.4,2.3l0,0.1l0.1,0c0.4,0.2,0.8,0.3,1.2,0.5l0.4,0.2l-0.1-0.5 C40,67.2,39.8,66.5,39.7,65.8"/><path fill="#0F183E" d="M56.2,66c0.2-0.7,0.3-1.4,0.4-2.1l0.1-0.4l-0.4,0.2c-0.3,0.2-0.6,0.3-1,0.4l-0.1,0l0,0.1 c-0.1,0.7-0.3,1.4-0.5,2.2l0,0.2l0.1,0.1c0.6,0.4,1.3,0.9,2,1.3l0.1,0.1l0.1,0c0.4-0.2,0.8-0.3,1.2-0.5l0.4-0.2L58.1,67 C57.4,66.7,56.8,66.3,56.2,66"/><path fill="#0F183E" d="M53,67.1c0.2-0.7,0.5-1.3,0.7-2l0.1-0.4l-0.4,0.1c-0.3,0.1-0.7,0.2-1,0.3l-0.1,0l0,0.1 c-0.2,0.7-0.5,1.4-0.8,2.1l-0.1,0.2l0.1,0.1c0.6,0.5,1.2,1,1.8,1.5l0.1,0.1l0.1,0c0.4-0.1,0.8-0.2,1.2-0.3l0.5-0.1l-0.4-0.3 C54.1,68,53.5,67.5,53,67.1"/><path fill="#0F183E" d="M49.6,67.7c0.4-0.6,0.7-1.2,1-1.9l0.2-0.4l-0.4,0.1c-0.3,0.1-0.7,0.1-1,0.1l-0.1,0l-0.1,0.1 c-0.3,0.6-0.7,1.3-1.2,1.9l-0.1,0.1l0.1,0.1c0.4,0.6,0.9,1.2,1.5,1.8l0.1,0.1l0.1,0c0.4,0,0.9-0.1,1.3-0.2l0.5-0.1l-0.4-0.3 C50.6,68.8,50.1,68.2,49.6,67.7"/></g></g></svg>